<?xml version="1.0" standalone="no"?>
<!DOCTYPE svg PUBLIC "-//W3C//DTD SVG 20010904//EN"
 "http://www.w3.org/TR/2001/REC-SVG-20010904/DTD/svg10.dtd">
<svg version="1.0" xmlns="http://www.w3.org/2000/svg"
 width="199.000000pt" height="161.000000pt" viewBox="0 0 199.000000 161.000000"
 preserveAspectRatio="xMidYMid meet">

<g transform="translate(0.000000,161.000000) scale(0.100000,-0.100000)"
fill="#fff" stroke="violet">
<path d="M835 1416 c-116 -37 -210 -119 -266 -231 -33 -67 -34 -74 -34 -185 0
-114 1 -118 37 -191 22 -45 55 -92 84 -119 l48 -45 -43 50 c-77 89 -111 180
-111 296 0 128 67 269 163 342 48 36 134 75 189 86 42 9 42 9 8 9 -19 0 -53
-5 -75 -12z"/>
<path d="M933 1210 c-65 -15 -122 -72 -109 -107 6 -14 11 -9 26 24 22 50 61
73 125 73 81 0 120 -67 96 -167 -31 -128 -125 -204 -202 -163 -23 13 -25 53
-3 74 8 9 12 16 7 16 -19 0 -33 -25 -33 -58 0 -29 5 -35 37 -48 101 -43 209
50 220 189 10 125 -57 193 -164 167z"/>
<path d="M940 1161 c-30 -57 -56 -272 -30 -256 6 3 10 21 10 39 0 19 11 78 25
132 29 115 28 104 15 104 -5 0 -14 -9 -20 -19z"/>
<path d="M80 405 l0 -65 33 0 c18 0 41 6 50 13 48 37 15 117 -49 117 l-34 0 0
-65z m68 33 c17 -17 15 -65 -4 -72 -36 -14 -44 -7 -44 39 0 37 3 45 18 45 10
0 23 -5 30 -12z"/>
<path d="M210 405 c0 -37 4 -65 10 -65 6 0 10 28 10 65 0 37 -4 65 -10 65 -6
0 -10 -28 -10 -65z"/>
<path d="M260 405 l0 -65 35 0 c19 0 35 5 35 10 0 6 -11 10 -25 10 -24 0 -25
3 -25 55 0 30 -4 55 -10 55 -6 0 -10 -28 -10 -65z"/>
<path d="M344 456 c-3 -7 -4 -35 -2 -62 3 -43 6 -49 27 -52 38 -6 67 6 79 33
21 46 -13 95 -65 95 -19 0 -36 -6 -39 -14z m74 -18 c17 -17 15 -65 -4 -72 -36
-14 -44 -7 -44 39 0 37 3 45 18 45 10 0 23 -5 30 -12z"/>
<path d="M490 450 c-39 -39 -11 -110 43 -110 28 0 41 9 56 37 34 65 -47 125
-99 73z m81 -21 c16 -31 -3 -69 -36 -69 -17 0 -29 8 -36 24 -15 32 4 66 36 66
15 0 29 -9 36 -21z"/>
<path d="M620 405 c0 -37 4 -65 10 -65 6 0 10 11 10 25 0 14 4 25 8 25 5 0 19
-11 32 -25 28 -30 46 -32 55 -5 4 13 15 20 32 20 16 0 27 -7 30 -20 5 -20 23
-28 23 -10 0 21 -46 120 -54 117 -5 -2 -18 -27 -29 -55 -19 -49 -21 -52 -38
-36 -14 13 -16 20 -7 40 14 31 -4 54 -43 54 -29 0 -29 0 -29 -65z m55 25 c0
-8 -8 -16 -17 -18 -13 -2 -18 3 -18 18 0 15 5 20 18 18 9 -2 17 -10 17 -18z
m105 -20 c0 -5 -4 -10 -10 -10 -5 0 -10 5 -10 10 0 6 5 10 10 10 6 0 10 -4 10
-10z"/>
<path d="M893 408 c-6 -35 -9 -65 -7 -67 7 -8 16 8 24 41 l8 33 13 -32 c7 -18
17 -33 21 -33 4 0 15 15 25 33 l17 32 9 -37 c5 -21 13 -38 18 -38 6 0 7 16 4
38 -18 110 -24 115 -50 50 l-17 -43 -21 43 c-12 23 -24 42 -28 42 -3 0 -11
-28 -16 -62z"/>
<path d="M1050 419 c0 -59 11 -79 46 -79 37 0 54 26 54 81 0 27 -4 49 -10 49
-5 0 -10 -19 -10 -42 0 -52 -11 -71 -36 -66 -15 2 -20 14 -22 48 -5 68 -22 75
-22 9z"/>
<path d="M1180 455 c-13 -16 -6 -33 22 -53 28 -20 23 -45 -7 -39 -16 3 -24 0
-22 -7 7 -21 55 -19 67 3 9 18 7 25 -15 47 -30 30 -32 44 -5 44 11 0 20 5 20
10 0 15 -46 12 -60 -5z"/>
<path d="M1270 405 l0 -65 35 0 c19 0 35 5 35 10 0 6 -11 10 -25 10 -24 0 -25
3 -25 55 0 30 -4 55 -10 55 -6 0 -10 -28 -10 -65z"/>
<path d="M1357 463 c-11 -10 -8 -111 3 -118 6 -4 10 18 10 59 0 66 -1 72 -13
59z"/>
<path d="M1405 423 c-4 -27 -9 -56 -12 -65 -2 -10 0 -18 6 -18 6 0 13 12 17
28 10 47 12 48 24 15 7 -18 16 -33 21 -33 5 0 17 17 28 38 19 35 20 36 21 10
0 -34 9 -58 22 -58 5 0 7 12 4 28 -2 15 -7 44 -11 65 -3 20 -9 37 -13 37 -5 0
-17 -19 -29 -42 l-21 -43 -17 43 c-9 23 -21 42 -25 42 -5 0 -12 -21 -15 -47z"/>
<path d="M1566 448 c-22 -31 -20 -64 4 -88 33 -33 76 -26 99 18 34 64 -62 129
-103 70z m79 -43 c0 -36 -3 -40 -27 -43 -21 -3 -30 2 -39 21 -16 36 4 69 39
65 24 -3 27 -7 27 -43z"/>
<path d="M1680 466 c0 -14 54 -126 60 -126 5 0 13 12 18 28 6 15 17 44 26 65
10 22 12 37 6 37 -6 0 -20 -21 -31 -47 l-20 -48 -21 48 c-11 26 -24 47 -29 47
-5 0 -9 -2 -9 -4z"/>
<path d="M1806 409 c-15 -34 -25 -64 -22 -66 8 -8 26 8 26 23 0 22 48 17 60
-7 7 -11 14 -18 17 -15 7 7 -37 126 -47 126 -4 0 -19 -28 -34 -61z m44 1 c0
-5 -4 -10 -10 -10 -5 0 -10 5 -10 10 0 6 5 10 10 10 6 0 10 -4 10 -10z"/>
</g>
</svg>
